<?xml version="1.0" encoding="UTF-8"?><svg id="Calque_2" xmlns="http://www.w3.org/2000/svg" viewBox="0 0 132.26 111.18"><defs><style>.cls-1{fill:#1d1d1b;}</style></defs><g id="Calque_1-2"><path class="cls-1" d="M33.17,24.04c6.72,21.51,11.74,43.55,14.96,65.85,.9,6.26,1.65,12.55,2.27,18.85l4.66-1.26c-8.29-15.25-14.91-31.37-19.72-48.06-2.4-8.33-4.35-16.79-5.84-25.33-.71-4.07-1.56-8.26-1.73-12.4-.07-1.72,0-3.52,.91-5.04,.8-1.33,2.23-2.15,3.64-2.73,3.52-1.45,7.46-2.26,11.17-3.01s7.7-1.27,11.61-1.31c7.34-.07,14.84,1.67,20.54,6.52s9.02,11.32,10.96,18.23,2.45,14.48,.55,21.49c-1.73,6.36-5.57,12.02-11.68,14.8-5.13,2.33-11.5,2.56-16.31-.37-1.22-.75-2.22-1.66-3.17-2.77l-1.77,4.27c8.49-.85,17.28-.81,25.53,1.6,3.87,1.13,7.58,2.83,10.81,5.27,1.59,1.2,3.04,2.63,4.32,4.16,1.18,1.4,2.52,3.37,2.15,5.15-.67,3.21-5.4,4.62-8.32,5.39-5.4,1.43-10.87,2.57-16.39,3.43-10.81,1.69-21.82,2.21-32.74,1.69-12.34-.59-24.57-2.63-36.45-6.01l.6,4.57c17.97-12.22,36.09-24.24,53.82-36.81,8.76-6.21,17.37-12.64,25.6-19.53,7.32-6.12,14.3-12.64,21.62-18.77,8.08-6.75,16.66-12.97,26.29-17.32,1.23-.56,1.53-2.34,.9-3.42-.74-1.27-2.19-1.46-3.42-.9-17.41,7.87-31.12,21.57-45.4,33.88-16.04,13.82-33.61,25.67-51.09,37.56-10.28,6.99-20.56,13.99-30.85,20.98-1.74,1.18-1.56,3.95,.6,4.57,23,6.56,47.29,8.02,70.93,4.47,5.83-.88,11.61-2.06,17.31-3.58,4.12-1.09,9.06-2.94,11.1-7.01,2.58-5.13-.8-10.13-4.39-13.72-3.28-3.27-7.24-5.68-11.5-7.43-9.7-3.99-20.72-4.27-31.02-3.24-2.2,.22-3.24,2.55-1.77,4.27,4.69,5.49,12.15,7.12,19.04,5.98,7.4-1.22,13.68-5.84,17.38-12.3,4.03-7.03,5.07-15.53,4.13-23.48s-3.63-16.26-8.53-22.86c-5.05-6.8-12.16-11.44-20.52-13.02s-17.3-.47-25.65,1.58c-4,.98-8.43,1.92-11.69,4.57-3.56,2.88-4.17,7.5-3.74,11.79,.93,9.27,2.82,18.55,5.02,27.6,4.45,18.3,11.05,36.09,19.57,52.88,1.06,2.08,2.15,4.15,3.26,6.2s4.9,1.25,4.66-1.26c-2.22-22.73-6.22-45.29-12.03-67.37-1.65-6.26-3.44-12.48-5.37-18.66-.96-3.06-5.78-1.75-4.82,1.33h0Z"/></g></svg>